<svg id="Layer_1" data-name="Layer 1" xmlns="http://www.w3.org/2000/svg" xmlns:xlink="http://www.w3.org/1999/xlink" viewBox="0 0 100 100"><defs><style>.cls-1,.cls-4{fill:none;}.cls-2{font-size:3.54761px;fill:#959595;font-family:TenorSans, Tenor Sans;}.cls-3{clip-path:url(#clip-path);}.cls-4{stroke:#959595;stroke-miterlimit:10;stroke-width:0.28346px;}</style><clipPath id="clip-path"><path class="cls-1" d="M53.7785,0A40.71568,40.71568,0,0,1,67.3646,2.95861L66.23814,6.16149C55.68919,2.792,44.53723,2.48932,34.21228,6.09656L32.83075,2.71069S37.12146.53162,46.1626,0H0V100H100V0Z"/></clipPath></defs><title>Заголовки</title><text class="cls-2" transform="matrix(0.95278, -0.30365, 0.30365, 0.95278, 34.8634, 5.1448)">Б</text><text class="cls-2" transform="matrix(0.96728, -0.25371, 0.25371, 0.96728, 37.08264, 4.43289)">А</text><text class="cls-2" transform="translate(39.53918 3.79178) rotate(-11.79007)">Р</text><text class="cls-2" transform="translate(41.74572 3.34061) rotate(-9.6781)"> </text><text class="cls-2" transform="translate(42.9215 3.1199) rotate(-7.1777)">И</text><text class="cls-2" transform="translate(45.83947 2.77078) rotate(-4.66748)"> </text><text class="cls-2" transform="matrix(0.99926, -0.03838, 0.03838, 0.99926, 47.01965, 2.65457)">Н</text><text class="cls-2" transform="translate(49.9342 2.54617) rotate(1.0436)">А</text><text class="cls-2" transform="translate(52.50207 2.58621) rotate(4.35063)">П</text><text class="cls-2" transform="matrix(0.99057, 0.13703, -0.13703, 0.99057, 55.41613, 2.80691)">И</text><text class="cls-2" transform="matrix(0.98139, 0.19201, -0.19201, 0.98139, 58.31652, 3.21512)">Т</text><text class="cls-2" transform="matrix(0.97028, 0.242, -0.242, 0.97028, 60.57824, 3.65213)">К</text><text class="cls-2" transform="translate(63.01867 4.25418) rotate(17.32143)">И</text><g class="cls-3"><circle class="cls-4" cx="49.99999" cy="49.99747" r="49.555"/></g></svg>