<svg xmlns="http://www.w3.org/2000/svg" id="Слой_1" xmlns:xlink="http://www.w3.org/1999/xlink" viewBox="0 0 480.2 464">
  <style>
    .st0{clip-path:url(#SVGID_2_);fill:#f8ac39;}
  </style>
  <defs>
    <path id="SVGID_1_" d="M0 0h480.2v464H0z"/>
  </defs>
  <clipPath id="SVGID_2_">
    <use xlink:href="#SVGID_1_" overflow="visible"/>
  </clipPath>
  <path d="M240.1 464h-189C20.3 464 0 443.8 0 413V98c0-29.4 20.7-50 50.1-50h23c6.5 0 6.9.5 7 6.8.1 6.7-.1 13.3 0 20 .3 22.8 17.6 40.2 39.9 40.3 22.1.1 39.6-17.5 40-40.1.1-6.7 0-13.3 0-20 0-6.4.5-6.9 6.8-6.9h145c8.2 0 8.2.1 8.3 8.5 0 6.3-.1 12.7 0 19 .4 22.2 18 39.6 40 39.6 21.9 0 39.4-17.6 39.8-39.8.1-7.2.1-14.3 0-21.5-.1-4 1.4-5.8 5.5-5.8 9.7.1 19.3-.2 29 .1 25.2.9 45.4 22.1 45.5 47.9.2 36.8.1 73.7.1 110.5v206.5c0 30.8-20.2 51-51.1 51.1-62.9-.1-125.9-.2-188.8-.2m0-288H40.6c-8.4 0-8.5.1-8.5 8.3v212.5c0 13 6.1 19.1 18.9 19.1h377c14.3 0 20-5.7 20-20.1v-211c0-8.8 0-8.8-8.9-8.8h-199" class="st0"/>
  <path d="M384.1 48c0 7.8.1 15.7 0 23.5-.2 14.1-10.8 24.7-24.3 24.5-13.3-.1-23.6-10.7-23.7-24.5-.1-15.7-.2-31.3 0-47 .2-14.2 10.6-24.6 24.2-24.5 13.3.1 23.6 10.6 23.8 24.5.1 7.8 0 15.7 0 23.5m-240 .5c0 7.7.1 15.3 0 23-.3 14.1-10.8 24.6-24.3 24.5-13.3-.1-23.6-10.6-23.7-24.5-.2-15.6-.2-31.3 0-46.9.1-14.2 10.8-24.7 24.2-24.6 13.2.1 23.5 10.7 23.7 24.5.2 8 .1 16 .1 24M192 256c-8.7 0-17.3-.1-26 .1-4.1.1-6.1-1.3-6.1-5.8.2-12.3.1-24.7 0-37 0-3.8 1.5-5.4 5.4-5.4 17.8.1 35.6.1 53.5 0 3.5 0 5.3 1.3 5.3 5-.1 12.7-.1 25.3 0 38 0 4-2 5.2-5.6 5.2-8.8-.1-17.6-.1-26.5-.1m96.2-48c8.8 0 17.7.1 26.5 0 3.7 0 5.5 1.4 5.5 5.3-.1 12.5-.1 25 0 37.5 0 3.9-1.7 5.3-5.4 5.3-17.8-.1-35.6-.1-53.5 0-3.9 0-5.2-1.9-5.2-5.5.1-12.3.1-24.7 0-37 0-4.1 1.7-5.7 5.7-5.6h26.4zm95.7 48c-8.8 0-17.7-.1-26.5 0-3.8 0-5.4-1.5-5.4-5.4.1-12.5.1-25 0-37.5 0-3.5 1.3-5.3 5-5.2 18 .1 36 .1 54 0 3.6 0 5.2 1.5 5.1 5.1-.1 12.7-.1 25.3 0 38 0 3.6-1.7 5-5.2 5h-27M96.2 272c8.8 0 17.7.1 26.5 0 3.8 0 5.4 1.5 5.4 5.4-.1 12.5-.1 25 0 37.5 0 3.9-1.7 5.3-5.5 5.3-17.7-.1-35.3-.1-53 0-4 0-5.7-1.5-5.7-5.6.1-12.3.1-24.7 0-37 0-4.1 1.8-5.6 5.7-5.5 9 0 17.8-.1 26.6-.1m95.9 48c-8.7 0-17.3-.1-26 0-4.1.1-6.2-1.3-6.1-5.7.2-12.3.1-24.7 0-37 0-3.8 1.4-5.5 5.3-5.4 17.8.1 35.6.1 53.5 0 3.8 0 5.4 1.7 5.3 5.4-.1 12.3-.1 24.7 0 37 .1 4.5-2 5.8-6.1 5.7-8.6-.1-17.3 0-25.9 0zm95.7 0c-8.7 0-17.3-.1-26 0-3.9.1-5.9-1.2-5.9-5.4.1-12.5.1-25 0-37.5 0-3.9 1.9-5.2 5.5-5.2 17.7.1 35.3.1 53 0 4.1 0 5.6 1.7 5.6 5.7-.1 12.2-.2 24.3 0 36.5.1 4.7-2 6.1-6.3 6-8.5-.2-17.2-.1-25.9-.1m96 0c-8.7 0-17.3-.1-26 0-3.9.1-5.9-1.2-5.8-5.5.1-12.5.1-25 0-37.5 0-3.5 1.5-5.2 5.1-5.2 18 .1 36 .1 54 0 3.6 0 5.1 1.6 5.1 5.2-.1 12.5-.1 25 0 37.5 0 4.2-2 5.5-5.8 5.5-8.9-.1-17.8 0-26.6 0M96.3 336c8.7 0 17.3.1 26 0 3.9-.1 5.9 1.2 5.8 5.5-.1 12.5-.1 25 0 37.5 0 3.5-1.5 5.2-5.1 5.2-18-.1-36-.1-54 0-3.6 0-5.1-1.6-5.1-5.2.1-12.5.1-25 0-37.5 0-4.2 2-5.5 5.8-5.4 9-.1 17.8-.1 26.6-.1m95.8 48c-8.7 0-17.3-.1-26 .1-4.1.1-6.1-1.3-6.1-5.7.2-12.3.1-24.7 0-37 0-3.8 1.5-5.4 5.3-5.4 17.8.1 35.6.1 53.5 0 3.9 0 5.3 1.7 5.3 5.5-.1 12.3-.1 24.7 0 37 0 4-1.5 5.8-5.6 5.7-8.8-.3-17.6-.2-26.4-.2m96.1-48c8.8 0 17.7.1 26.5 0 3.8 0 5.5 1.5 5.4 5.3-.1 12.5-.1 25 0 37.5 0 3.9-1.7 5.3-5.4 5.3-17.7-.1-35.3-.1-53 0-4 0-5.7-1.5-5.7-5.6.1-12.3.1-24.7 0-37 0-4.1 1.7-5.6 5.7-5.6 8.8.2 17.7.1 26.5.1m96.1 0c8.5 0 17 .1 25.5-.1 4.4-.1 6.4 1.3 6.3 6-.2 12.2-.1 24.3 0 36.5 0 4-1.5 5.7-5.6 5.7-17.7-.1-35.3-.1-53 0-4.1 0-5.6-1.8-5.6-5.7.1-12.2.1-24.3 0-36.5-.1-4.3 1.6-6 5.9-5.9 8.9.1 17.7 0 26.5 0" class="st0"/>
</svg>
