<?xml version="1.0" encoding="utf-8"?>
<!-- Generator: Adobe Illustrator 19.1.0, SVG Export Plug-In . SVG Version: 6.00 Build 0)  -->
<svg version="1.1" id="Слой_1" xmlns="http://www.w3.org/2000/svg" xmlns:xlink="http://www.w3.org/1999/xlink" x="0px" y="0px"
	 viewBox="0 0 100 100" style="enable-background:new 0 0 100 100;" xml:space="preserve">
<g id="vk">
	<path d="M50,87.8c-20.9,0-37.8-16.9-37.8-37.8c0-20.9,16.9-37.8,37.8-37.8S87.8,29.1,87.8,50C87.8,70.9,70.9,87.8,50,87.8 M50,5
		C25.1,5,5,25.1,5,50c0,24.9,20.1,45,45,45c24.9,0,45-20.1,45-45C95,25.1,74.9,5,50,5"/>
	<path d="M41.4,39.5c0.9-0.3,1.8-0.8,2.6-0.8c1.9,0,3.8,0.1,5.7,0.3c1.1,0.1,1.7,0.9,1.7,2c-0.1,1.8-0.3,3.5-0.2,5.3
		c0.1,1,0.6,2,0.9,3c0.8-0.6,1.8-1.1,2.3-1.8c1.3-2,2.4-4.2,3.5-6.3c0.5-1,1.2-1.4,2.3-1.4c2,0.1,4,0,6,0c1.6,0,2.1,0.7,1.3,2
		c-1.2,2.1-2.5,4.1-4,6c-2.7,3.4-2.8,3.6,0.3,6.7c1.2,1.2,2.4,2.5,3.4,3.9c1.1,1.6,0.5,2.6-1.4,2.6c-1.1,0-2.2,0.1-3.2,0.2
		c-2.6,0.4-4.7-0.4-6.5-2.4c-0.6-0.7-1.1-1.4-1.8-2c-0.5-0.4-1.3-0.7-1.9-0.7c-0.3,0-0.8,1-0.8,1.5c-0.4,3.1-0.8,3.5-4,3.5
		c-4.9,0.1-8.6-2.4-11.2-6.1c-2.8-3.9-5.3-8.2-7.6-12.4c-1.4-2.7-1-3.1,2.1-3.2c1.4,0,2.8,0,4.1,0.2c0.6,0.1,1.3,0.8,1.7,1.4
		c1.4,2.3,2.6,4.7,3.9,6.9c0.4,0.6,1.3,0.9,1.9,1.3c0.3-0.7,0.7-1.4,0.8-2.2c0.1-0.8,0-1.7,0.1-2.5c0.1-1.9,0-3.7-2.2-4.6
		C41.4,39.9,41.4,39.7,41.4,39.5z"/>
</g>
<g id="fb">
	<path d="M50,87.8c-20.9,0-37.8-16.9-37.8-37.8c0-20.9,16.9-37.8,37.8-37.8c20.9,0,37.8,16.9,37.8,37.8C87.8,70.9,70.9,87.8,50,87.8
		 M50,5C25.1,5,5,25.1,5,50c0,24.9,20.1,45,45,45c24.9,0,45-20.1,45-45C95,25.1,74.9,5,50,5"/>
	<path d="M58.1,43.5c-0.2,1.9-0.3,3.5-0.5,5.1c0,0.3-0.5,0.6-0.8,0.8c-0.3,0.1-0.7,0-1,0c-3.4,0.1-3.1-0.5-3.1,3.2
		c0,4.3-0.1,8.6,0,12.8c0,1.4-0.5,1.8-1.8,1.7c-1.1-0.1-2.3,0-3.4,0c-1.9,0-1.9,0-1.9-2c0-4.6,0-9.1,0-13.7c0-2,0-2.1-2-2
		c-1.4,0.1-2-0.4-1.8-1.8c0.1-0.4,0-0.8,0-1.2c0-2.6,0-2.6,2.6-3c0.4-0.1,1-0.7,1.1-1.2c0.2-1.1,0.2-2.2,0.1-3.2
		c-0.3-4.4,2.6-6.9,6.7-7.2c1.6-0.1,3.2-0.1,4.9,0c0.4,0,1,0.6,1,1c0.1,1.3,0.1,2.7,0,4c0,0.4-0.6,1-1,1.1c-1,0.2-2.1,0.1-3.1,0.4
		c-0.5,0.1-1.2,0.7-1.3,1.2c-0.2,1-0.2,2.1-0.1,3.1c0.1,0.4,0.7,0.9,1.2,0.9C55.2,43.6,56.5,43.5,58.1,43.5z"/>
</g>
<g id="ok">
	<path d="M50,87.8c-20.9,0-37.8-16.9-37.8-37.8c0-20.9,16.9-37.8,37.8-37.8S87.8,29.1,87.8,50C87.8,70.9,70.9,87.8,50,87.8 M50,5
		C25.1,5,5,25.1,5,50c0,24.9,20.1,45,45,45c24.9,0,45-20.1,45-45C95,25.1,74.9,5,50,5"/>
	<path d="M58.3,41.5c0,5-3.6,8.6-8.4,8.6c-5.1-0.1-8.8-3.7-8.8-8.7c0-5,3.8-8.7,8.8-8.6C54.7,32.8,58.4,36.6,58.3,41.5z M46.2,41.4
		c0,2,1.6,3.6,3.7,3.6c2,0,3.5-1.5,3.4-3.6c0-2-1.6-3.6-3.5-3.6C47.8,37.7,46.2,39.4,46.2,41.4z"/>
	<path d="M46.5,57.3c-1-0.4-1.8-0.6-2.6-0.9c-0.9-0.4-1.7-0.7-2.5-1.3c-1.1-0.8-1.4-2.1-0.8-3.3c0.6-1.1,1.8-1.5,3.2-1.1
		c0.8,0.3,1.5,0.7,2.3,1c2.6,1,5.2,0.8,7.8-0.3c0.9-0.4,1.7-0.7,2.6-1.1c1.2-0.5,2.1-0.2,2.8,0.9c0.7,1.1,0.7,2.2-0.3,3.1
		c-0.9,0.7-1.9,1.3-3,1.9c-0.5,0.3-1.1,0.5-2,0.9c0.8,0.8,1.4,1.4,2,2c1,1.1,2.1,2.1,3,3.3c0.8,1.1,0.7,2.2-0.3,3.2
		c-1,1-2.1,0.8-3.1,0.1c-1.4-1.1-2.8-2.4-4-3.6C50.6,61,50,61,49.2,62.1c-0.9,1.2-2,2.3-3.1,3.3c-1.5,1.4-2.8,1.5-3.9,0.5
		c-1-0.9-1-2.4,0.2-3.8c0.9-1.2,2.1-2.2,3.1-3.4C45.7,58.3,46,58,46.5,57.3z"/>
</g>
<g id="inst">
	<path d="M50,87.8c-20.9,0-37.8-16.9-37.8-37.8c0-20.9,16.9-37.8,37.8-37.8c20.9,0,37.8,16.9,37.8,37.8C87.8,70.9,70.9,87.8,50,87.8
		 M50,5C25.1,5,5,25.1,5,50c0,24.9,20.1,45,45,45c24.9,0,45-20.1,45-45C95,25.1,74.9,5,50,5"/>
	<path d="M50,67.2c-4,0-8,0-12,0c-3,0-4.4-1.4-4.4-4.4c0-7.9,0-15.7,0-23.6c0-3,1.5-4.4,4.4-4.4c8,0,15.9,0,23.9,0
		c3,0,4.4,1.5,4.4,4.4c0,7.9,0,15.7,0,23.6c0,3-1.5,4.4-4.4,4.4C58,67.2,54,67.2,50,67.2z M49.9,62.8c3.5,0,7.1,0,10.6,0
		c1.3,0,2-0.5,2-1.8c0-3.9,0-7.8,0-11.7c0-1.1-0.6-1.3-1.5-1.3c-1.1,0-0.9,0.7-0.9,1.4c0.7,7.1-6,12.6-12.8,10.7
		c-4.6-1.3-7.7-5.7-7.4-10.5c0.1-0.8,0.1-1.4-1-1.5c-1.2,0-1.4,0.5-1.4,1.5c0,3.6,0,7.3,0,10.9c0,1.7,0.3,2.1,2.1,2.1
		C43,62.8,46.5,62.8,49.9,62.8z M43.9,50.4c0,3.5,2.5,6.1,6,6.1c3.6,0,6.2-2.5,6.2-6.1c0-3.5-2.5-6.1-6-6.1
		C46.5,44.4,43.9,47,43.9,50.4z M59.4,38.6c-3,0-3,0-3,2.9c0,3.1,0.2,3.2,3.1,3.2c2.8,0,3.1-0.3,3.1-3
		C62.5,38.7,62.4,38.6,59.4,38.6z"/>
</g>
<g id="celicom">
	<path d="M56.4,31.8c-2.5,0.1-5.3-0.7-7.9-1.4c-2.2-0.6-4.3-1.2-6-1.2l-0.2,0c-1.2,0-1.8,0.5-2.2,0.9c-0.4,0.5-6.5,0.5-6.5,0.5
		c-0.2-2.4,0.3-4.4,1.6-5.8c1.2-1.3,3.1-2.1,5.4-2.2c2.7-0.1,5.4,0.6,8,1.4c2.2,0.6,4.3,1.2,6.1,1.1c1,0,1.8-0.3,2.3-0.9
		c0.4-0.5,6.5-0.6,6.5-0.6c0.2,2.4-0.3,4.4-1.6,5.8C60.7,30.9,58.8,31.7,56.4,31.8"/>
	<polygon points="61.6,69.2 32.8,69.2 32.8,36 39.9,36 39.9,62.8 56.5,62.8 56.5,36 63.6,36 63.6,62.8 67.8,62.8 67.8,76.4 
		61.6,76.4 	"/>
	<path d="M50,87.8c-20.9,0-37.8-16.9-37.8-37.8c0-20.9,16.9-37.8,37.8-37.8c20.9,0,37.8,16.9,37.8,37.8C87.8,70.9,70.9,87.8,50,87.8
		 M50,5C25.1,5,5,25.1,5,50c0,24.9,20.1,45,45,45c24.9,0,45-20.1,45-45C95,25.1,74.9,5,50,5"/>
</g>
</svg>
