<?xml version="1.0" encoding="utf-8"?>
<!-- Generator: Adobe Illustrator 21.0.0, SVG Export Plug-In . SVG Version: 6.00 Build 0)  -->
<svg version="1.1" id="Layer_1" xmlns="http://www.w3.org/2000/svg" xmlns:xlink="http://www.w3.org/1999/xlink" x="0px" y="0px"
	 viewBox="0 0 100 62" style="enable-background:new 0 0 100 62;" xml:space="preserve">
<style type="text/css">
	.st0{fill:#F8AC39;}
</style>
<g>
	<path class="st0" d="M50.3,49.5c-13.9,0-27.8,0-41.7,0c-2.1,0-2.1,0-2-2.1c0.5-7.8,2.9-14.9,7.9-20.9c3.8-4.6,8.5-8.1,14-10.5
		c6.5-2.9,13.3-4.4,20.4-4.6c0.7,0,1-0.2,0.7-0.9c-0.7-1.6-1.5-3.2-2.3-4.7C47,5.4,47,5.1,47.5,4.9c1.9-0.8,3.7-0.8,5.6,0
		c0.5,0.2,0.6,0.5,0.3,1c-0.8,1.6-1.6,3.3-2.3,4.9c0,0.1,0.3,0.6,0.6,0.6c1.9,0.2,3.8,0.2,5.7,0.5c8.6,1,16.4,3.9,23.3,9.2
		c4.9,3.8,8.5,8.5,10.9,14.3c1.7,4.3,2.5,8.8,2.7,13.5c0,0.6-0.2,0.8-0.7,0.8C79,49.6,64.7,49.6,50.3,49.5
		C50.3,49.6,50.3,49.6,50.3,49.5z M21,30.8c-2.5,0.3-4.6,0.6-6.8,0.9c-0.2,0-0.5,0.3-0.6,0.6c-0.4,0.7-0.7,1.4-1.1,2.2
		c-1.4,3.2-2.1,6.6-2.4,10c-0.1,0.9,0.2,1,1,1c1.6,0,3.2-0.1,4.9,0c0.8,0,1.1-0.2,1.1-1c0.3-3.5,1.3-6.8,2.5-10.1
		C20,33.2,20.5,32.2,21,30.8z M31.2,18.4c-3.6,0.1-15,8.1-15.1,10.5c1.8-0.3,3.6-0.6,5.5-0.8c0.8-0.1,1.3-0.4,1.7-1
		c2-3,4.3-5.8,7.3-8C30.7,18.9,30.9,18.7,31.2,18.4z"/>
	<path class="st0" d="M80.9,56.5c0,3-2.4,5.5-5.5,5.5c-3,0-5.4-2.5-5.4-5.4c0-3,2.5-5.6,5.5-5.5C78.5,51.1,80.9,53.5,80.9,56.5z
		 M77.9,56.5c0-1.3-1.2-2.4-2.4-2.4c-1.3,0-2.5,1.2-2.5,2.5c0,1.3,1.2,2.5,2.5,2.5C76.8,59,77.9,57.8,77.9,56.5z"/>
	<path class="st0" d="M30.8,56.5c0,3-2.5,5.5-5.5,5.5c-3,0-5.5-2.6-5.4-5.5c0.1-3,2.6-5.5,5.6-5.4C28.4,51.1,30.8,53.6,30.8,56.5z
		 M25.3,59c1.3,0,2.5-1.2,2.5-2.5c0-1.3-1.2-2.5-2.5-2.5c-1.2,0-2.4,1.2-2.4,2.4C22.8,57.7,24,59,25.3,59z"/>
	<path class="st0" d="M71.5,50.9c-1.1,1.3-2.1,1.9-3.8,1.9c-12-0.1-23.9,0-35.9-0.1c-0.4,0-0.8-0.2-1.1-0.5
		c-0.4-0.4-0.7-0.9-1.1-1.4C43.4,50.9,57.3,50.9,71.5,50.9z"/>
	<path class="st0" d="M53.9,8.4c0.8-0.9,1.4-1.8,2.3-2.6c2.7-2.5,6.1-3.5,9.7-3.5c3.4,0,6.8,0.4,10.2,0.7c3.6,0.3,7.2,1,10.8,0.7
		c3.1-0.2,5.9-1.1,8.2-3.3c0.2-0.2,0.4-0.3,0.6-0.5c0,0,0.1,0,0.4,0c-0.4,0.5-0.7,0.9-1,1.3c-3.4,3.4-7.5,5.1-12.3,4.8
		c-4-0.3-7.9-1-11.9-1.4c-2.7-0.3-5.4-0.6-8.2-0.6c-3,0.1-5.6,1.4-7.6,3.7c-0.3,0.3-0.6,0.6-0.9,0.9C54.2,8.6,54,8.5,53.9,8.4z"/>
	<path class="st0" d="M21.1,50.9c-0.5,0.6-0.9,1.2-1.4,1.7c-0.2,0.2-0.5,0.2-0.7,0.2c-5.9,0-11.8,0-17.6,0c-0.8,0-1.3-0.3-1.3-1
		c0-0.7,0.6-0.9,1.3-0.9c6,0,12,0,17.9,0C19.9,50.9,20.6,50.9,21.1,50.9z"/>
	<path class="st0" d="M79.3,51c0.3-0.1,0.5-0.2,0.7-0.2c6.1,0,12.2,0,18.3,0.1c0.8,0,1.7-0.1,1.7,1c0,1-0.9,1-1.7,1
		c-5.3,0-10.7,0-16,0c-0.8,0-1.4-0.1-1.9-0.8C80.2,51.6,79.8,51.4,79.3,51z"/>
	<path class="st0" d="M56.5,7.6c2.6-2,5.5-2.9,8.7-1.9c2.4,0.7,4.8,1.8,7.1,2.9c2.1,0.9,4.1,1.6,6.5,1.1c-0.9,0.9-2.1,1.3-4.1,0.9
		c-2.2-0.5-4.3-1.1-6.4-1.9c-2.6-0.9-5.2-1.8-8.1-1.5c-1,0.1-2,0.5-3,0.7c-0.2,0.1-0.5,0.1-0.7,0.1C56.6,7.8,56.6,7.7,56.5,7.6z"/>
</g>
</svg>
