<svg xmlns="http://www.w3.org/2000/svg" id="Слой_1" xmlns:xlink="http://www.w3.org/1999/xlink" viewBox="0 0 480.3 416.5">
  <style>
    .st0{clip-path:url(#SVGID_2_);fill:#f8ac39;}
  </style>
  <defs>
    <path id="SVGID_1_" d="M0 0h480.3v416.5H0z"/>
  </defs>
  <clipPath id="SVGID_2_">
    <use xlink:href="#SVGID_1_" overflow="visible"/>
  </clipPath>
  <path d="M240.2 400.5c-29.5 0-59 .1-88.5-.1-4.6 0-7.2 1.1-8.8 5.9-2.1 6.4-7.4 9.9-14.1 10.1-11 .3-22 .3-33 0-7.5-.2-12.9-4.4-14.9-11.8-1-3.7-3-5-6.4-5.9-26.1-6.9-42.2-27.8-42.3-54.9 0-8 .3-16-.1-24-.7-12.1 2.5-23 7.8-33.7 13.3-27.1 30.6-51.6 49.5-75 21.7-26.8 44.5-52.7 67-78.8 2.7-3.1 4.2-6.2 3.9-10.3-.2-3.2-.1-6.3 0-9.5.5-9.1 6.8-15.6 16-16.1 5.3-.3 10.7-.3 16 0 9.1.4 15.5 6.9 16 16 .2 3.7.1 7.3.1 11 0 3.3 1.6 4.9 4.9 4.8h54c3.3 0 4.9-1.6 4.8-4.9 0-3.5 0-7 .1-10.5.4-9.4 6.8-16 16.1-16.4 5.2-.2 10.3-.2 15.5 0 9.6.4 16 7 16.5 16.6v.5c-2.1 11.3 3.7 18.7 11 26.6 35.7 38.4 68.9 78.8 96.9 123.2 3.5 5.5 6.5 11.3 9.6 16.9 7.5 13.5 11.9 27.8 10.6 43.5-.5 7-.1 14-.1 21-.1 25.6-16.6 47.2-41.3 53.6-4.2 1.1-6.5 2.7-7.7 7.1-2 7-7.4 10.7-14.6 10.9-11 .3-22 .3-33 0-7-.2-12.2-3.8-14.4-10.5-1.4-4.4-3.9-5.5-8.1-5.4-29.7.1-59.4.1-89 .1m-64-208h-10.5c-3.4.1-5.3 1.9-5.4 5.3-.1 7-.1 14 0 21 0 3.4 1.9 5.3 5.3 5.4 7 .1 14 .1 21 0 3.4 0 5.3-1.9 5.4-5.3.1-7 .1-14 0-21 0-3.7-2.2-5.4-5.8-5.4h-10m112.1 15.9c0 3.5-.1 7 0 10.5.1 3.4 1.9 5.3 5.3 5.3 7 .1 14 .1 21 0 3.4 0 5.3-1.9 5.3-5.3.1-7 .1-14 0-21 0-3.4-1.9-5.3-5.3-5.3-7-.1-14-.1-21 0-3.4 0-5.2 1.9-5.3 5.3v10.5m-128 47.9v10c0 3.9 2 5.9 5.8 5.9h20.5c3.4 0 5.3-1.9 5.3-5.3.1-7 .1-14 0-21 0-3.4-1.9-5.3-5.3-5.3-7-.1-14-.1-21 0-3.4 0-5.3 1.9-5.3 5.3v10.4m95.7.6c0-3.7.1-7.3 0-11-.1-3.4-2-5.3-5.3-5.3-7-.1-14-.1-21 0-3.4 0-5.3 1.9-5.3 5.3-.1 7-.1 14 0 21 0 3.4 2 5.2 5.3 5.3 3.7.1 7.3.1 11 .1 16.5 0 15.4 1.1 15.3-15.4m64 0v-10.5c0-3.6-1.7-5.8-5.4-5.8-7-.1-14-.1-21 0-3.4 0-5.3 1.9-5.3 5.3-.1 7-.1 14 0 21 0 3.4 1.9 5.2 5.3 5.3 3.7.1 7.3.1 11 .1 16.6.1 15.5 1.1 15.4-15.4m-144.2 63.4h10c4.1 0 6.2-1.9 6.2-6.1v-19.5c0-4.1-1.9-6.2-6.1-6.2h-19.5c-4.4 0-6.3 2.3-6.2 6.5.1 6.2.1 12.3 0 18.5-.1 4.9 2.3 6.9 7.1 6.8 2.9-.1 5.7 0 8.5 0m64.2-.1h10c3.8 0 6-1.8 6-5.7V294c0-3.6-2.1-5.5-5.7-5.5-6.8 0-13.6-.1-20.5 0-3.6 0-5.5 2.1-5.5 5.7 0 6.8-.1 13.6 0 20.5 0 3.7 2.1 5.5 5.7 5.5 3.3.1 6.7 0 10 0m-15.7-111.8v10c0 3.9 2 5.8 5.9 5.9h19.9c3.8 0 5.8-2.1 5.9-5.9.1-6.6 0-13.3 0-19.9 0-3.9-2.1-5.8-5.9-5.8h-19.9c-3.9 0-5.8 2.1-5.8 5.9-.1 3.2-.1 6.5-.1 9.8m80 80.1h-10c-3.8 0-6 1.8-6 5.7v20.4c0 3.6 2 5.5 5.6 5.5h19.9c3.8 0 6-1.9 6.1-5.8.1-6.8.1-13.6 0-20.4 0-3.7-2.1-5.4-5.7-5.5-3.2.1-6.6.1-9.9.1" class="st0"/>
  <path d="M417.8 144.5c-8.8 0-17.7.4-26.5-.1-6.1-.3-12.4-1.1-18.1-3.1-13.2-4.4-20-14.3-21-28.2-.1-1-.1-2-.1-3 .3-16.4-7.3-28.3-22.3-33.9-12-4.6-24.8-8.4-37.5-9.9-39.5-4.8-79.2-5.4-118.4 2.4-10 2-19.8 6-28.9 10.5-11.2 5.5-16.2 15.8-16.7 28.3-.1 2 0 4-.2 6-1.2 13.6-7.8 23.4-20.8 27.8-5.7 1.9-12 3-18.1 3.1-17.7.4-35.3.1-53 .1-2 0-4-.1-6-.3C9.1 141.4.4 131.2 0 109.8c-.7-38.5 19.4-63 52.1-79.4 25.2-12.6 52.2-19.1 79.9-23 67.3-9.6 134.8-9.6 202.3-1.9 29.9 3.4 59.3 9.4 87 21.7 18.9 8.4 35.7 19.5 47.2 37.2 10.9 16.9 13.3 35.7 11 55.2-1.3 11.3-8.2 19.2-19.1 22-7.3 1.9-15.1 2.2-22.7 2.7-6.6.5-13.3.2-19.9.2" class="st0"/>
</svg>
